<svg width="200" height="80" viewBox="0 0 200 80" fill="none" xmlns="http://www.w3.org/2000/svg">
<g id="Layer_1" clip-path="url(#clip0_5202_37253)">
<path id="Vector" d="M96.0627 66.5585C92.3862 72.3798 84.6873 77.131 77.3343 77.131C67.0835 77.131 61.8067 69.2551 63.061 62.535C65.2669 50.2075 73.5281 44.2578 82.3949 44.2578C86.8499 44.2578 92.0402 47.5965 91.1752 52.7329C90.5696 58.0834 84.99 61.5077 79.8862 62.3209C78.3724 62.6206 76.6856 62.4494 75.4745 62.1497C73.8741 70.0256 80.6648 71.3525 82.1354 71.3525C86.3309 71.3525 91.5212 67.5858 93.9866 64.1615C95.1977 62.7918 98.1821 63.4766 96.106 66.5157L96.0627 66.5585ZM76.3395 58.6826C79.6267 58.0834 84.0385 55.1299 84.298 51.1064C84.3845 49.8223 84.125 49.223 83.606 49.223C82.3949 49.223 78.8049 51.1064 76.3395 58.6826Z" fill="#3E97FF"/>
<path id="Vector_2" d="M139.923 66.2615C137.241 70.285 127.336 78.3749 118.513 76.9196C113.625 76.1063 113.322 71.3979 113.928 68.9581L118.686 52.5643C118.902 51.751 118.989 49.9961 117.475 49.9961C115.658 49.9961 112.976 52.0507 110.511 54.6617L105.84 71.0555C105.537 72.04 105.84 72.5536 106.229 73.1101L107.008 73.7949C106.316 74.3942 105.537 74.9506 104.715 75.3786C103.245 76.1919 101.125 76.9624 98.6166 76.9624C94.2481 76.9624 91.7394 74.1801 92.5612 71.1411L98.6166 49.9105C98.9193 49.0116 98.6166 48.4124 98.3138 47.8559L97.5353 47.171C98.2273 46.6574 99.0059 46.101 99.8277 45.5873C101.298 44.774 103.288 43.918 105.926 43.918C109.689 43.918 112.025 45.9725 112.111 48.6264C115.399 45.9725 119.378 43.918 124.352 43.918C127.942 43.918 133.824 46.1866 132.354 51.0234L127.25 69.0009C127.163 69.6858 127.336 70.4562 128.547 70.4562C132.051 70.4562 135.598 66.7323 137.803 63.9501C139.015 62.5804 141.999 63.1368 139.923 66.2187V66.2615Z" fill="#3E97FF"/>
<path id="Vector_3" d="M155.753 51.7067C155.753 49.9518 158.348 49.5238 158.348 48.6677C158.348 48.2825 158.218 47.084 155.969 47.084C154.369 47.084 151.86 48.5393 151.86 51.2359C151.86 55.6875 162.5 58.8121 162.5 66.3456C162.5 72.7661 154.715 77.6885 146.151 77.6885C139.576 77.6885 135.078 73.0658 135.078 68.4002C135.078 64.5478 137.371 62.9641 139.793 62.9641C142.215 62.9641 143.383 64.9331 143.383 66.4312C143.383 67.9293 142.301 68.4002 142.301 69.2134C142.301 70.4975 143.815 71.8673 144.983 71.8673C146.756 71.8673 148.443 70.4975 148.443 68.4858C148.443 65.7035 139.101 62.2792 139.101 54.275C139.101 49.0529 145.589 43.5312 153.46 43.5312C161.332 43.5312 164.922 47.084 164.922 50.5082C164.922 53.9325 161.116 54.8742 159.559 54.8742C157.353 54.8742 155.753 53.4189 155.753 51.7067Z" fill="#3E97FF"/>
<path id="Vector_4" d="M199.309 66.5585C195.632 72.3798 187.933 77.131 180.58 77.131C170.33 77.131 165.053 69.2551 166.307 62.535C168.513 50.2075 176.774 44.2578 185.641 44.2578C190.096 44.2578 195.286 47.5965 194.421 52.7329C193.816 58.0834 188.236 61.5077 183.132 62.3209C181.618 62.6206 179.932 62.4494 178.721 62.1497C177.12 70.0256 183.911 71.3525 185.381 71.3525C189.577 71.3525 194.767 67.5858 197.233 64.1615C198.444 62.7918 201.428 63.4766 199.352 66.5157L199.309 66.5585ZM179.586 58.6826C182.873 58.0834 187.285 55.1299 187.544 51.1064C187.631 49.8223 187.371 49.223 186.852 49.223C185.641 49.223 182.051 51.1064 179.586 58.6826Z" fill="#3E97FF"/>
<path id="Vector_5" d="M40.1819 20.0749C38.841 17.0787 28.5902 13.1407 25.5625 14.4676C28.5902 13.1407 32.5694 2.99625 31.2286 0C32.5694 2.99625 42.8203 6.93419 45.848 5.60728C42.8203 6.93419 38.841 17.0787 40.1819 20.0749Z" fill="#3E97FF"/>
<path id="Vector_6" d="M75.9961 12.5858C74.3092 10.8308 72.1899 9.54673 69.7677 8.73346C63.9286 6.8501 56.7054 8.21982 52.9425 13.2706C51.9477 14.6404 51.2556 16.0957 50.7798 17.6366C49.4823 21.8314 49.8715 26.5398 50.7366 30.7345C51.9909 37.1123 52.5532 43.5756 50.1743 49.825C47.7954 56.0743 42.3023 62.024 35.7279 63.5221C30.8836 64.635 25.3906 63.6505 21.2383 60.9111C12.7176 55.3038 12.7608 39.6377 22.3629 35.1005C26.6016 33.0887 31.7054 33.9448 35.1224 37.1123C36.247 38.1396 37.1553 39.4237 37.8041 40.8362C38.1501 41.5638 38.2798 42.3771 38.4529 43.1904C38.5826 43.8752 38.5394 44.9025 39.4477 44.9453C40.356 44.9881 41.1345 44.4317 41.6535 43.7896C44.1189 40.9218 44.465 36.3846 42.7781 33.0887C40.7885 29.1936 36.2037 26.0689 31.3162 25.2557C22.7522 23.8431 14.1881 26.1545 8.3923 31.4194C8.08953 31.6762 7.83001 31.933 7.5705 32.2327C-0.128463 39.8945 -2.20459 52.7356 2.50994 62.7945C7.05147 72.4681 17.6483 79.3595 28.8075 79.9587C29.3698 79.9587 29.9321 79.9587 30.4511 79.9587C35.5117 79.9587 40.2695 78.7174 44.2487 76.3632C48.8335 73.6238 53.8075 69.1722 56.7054 63.5221C61.4632 54.2337 61.5065 43.5756 59.7764 33.5168C59.0843 29.6644 57.7868 24.9132 60.2089 21.4461C61.7227 19.2632 64.2746 18.0647 66.8265 19.2632C68.0376 19.8196 68.9459 20.8469 69.5082 22.0882C69.9407 23.0727 70.1137 24.1428 70.0705 25.1701C69.984 27.5243 68.9027 29.8356 67.7349 31.9758C67.5618 32.3183 67.5618 32.7035 67.7349 33.0459C67.9511 33.3884 68.2971 33.5596 68.6432 33.5596C73.3577 33.474 77.8127 30.0497 79.24 25.4697C80.6241 21.1037 79.3265 16.0529 75.9961 12.5858Z" fill="#3E97FF"/>
</g>
<defs>
<clipPath id="clip0_5202_37253">
<rect width="200" height="80" fill="white"/>
</clipPath>
</defs>
</svg>
